# xmcd CD database file
#
# Track frame offsets:
#	150
#	21016
#	42795
#	94347
#	127534
#	152353
#	214240
#
# Disc length: 3707 seconds
#
# Revision: 2
# Processed by: cddbd v1.4b41PL1 Copyright (c) Steve Scherf et al.
# Submitted via: Feurio! 1.50.2ß - http://www.feurio.com
#
DISCID=4a0e7907
DTITLE=The Doors - Isle Of Wight Festival
DYEAR=1900
DGENRE=
TTITLE0=Back Door Man
TTITLE1=Break On Through
TTITLE2=When the Music's Over
TTITLE3=Ship Of Fools
TTITLE4=Roadhouse Blues
TTITLE5=Light Ny Fire
TTITLE6=The End
EXTD=
EXTT0=
EXTT1=
EXTT2=
EXTT3=
EXTT4=
EXTT5=
EXTT6=
PLAYORDER=
